<svg id="Layer_1" data-name="Layer 1" xmlns="http://www.w3.org/2000/svg" viewBox="0 0 400 200"><defs><style>.cls-1{font-size:25.28px;font-family:Gotham-Ultra, Gotham;letter-spacing:0.3em;}.cls-1,.cls-11{fill:#95258c;}.cls-2{letter-spacing:0.26em;}.cls-3{letter-spacing:0.3em;}.cls-4{letter-spacing:0.17em;}.cls-5{letter-spacing:0.3em;}.cls-6{font-size:13.71px;font-family:Gotham-MediumItalic, Gotham;font-weight:500;font-style:italic;letter-spacing:0.1em;}.cls-14,.cls-6{fill:#2bbbc6;}.cls-7{letter-spacing:0.08em;}.cls-8{letter-spacing:0.1em;}.cls-9{fill:#28bcc4;}.cls-10{fill:#c84d8d;}.cls-12{fill:#f8a728;}.cls-13{fill:#995476;}.cls-15{fill:#468b68;}.cls-16{fill:#c792c7;}</style></defs><text class="cls-1" transform="translate(172.77 73.56)">BETTER <tspan class="cls-2"><tspan x="0" y="30.33">W</tspan><tspan class="cls-3" x="34.73" y="30.33">ORLD </tspan></tspan><tspan x="0" y="60.67">CHARIT</tspan><tspan class="cls-4" x="146.67" y="60.67">Y</tspan><tspan class="cls-5" x="169.47" y="60.67">.</tspan></text><text class="cls-6" transform="translate(170.05 152.23)">Small <tspan class="cls-7" x="49.91" y="0">A</tspan><tspan class="cls-8" x="61.41" y="0">cts ,Big Impact</tspan></text><path class="cls-9" d="M75.15,108.25a13.66,13.66,0,0,1,1.24-1.74c5.78-6,9-12.86,8.33-21.38a32,32,0,0,1,.44-7.44c.24-1.44,1.2-2.76,1.83-4.13l.8.23c-.07,1-.11,1.94-.21,2.91C87,82.25,90.8,90.12,99,88.8c1.64-.26,3.23-.78,4.84-1.18,2.48-.62,5-.88,7.21.64A25.42,25.42,0,0,1,114,91l-.37.64-2.73-.5c-5.56-.93-10.22,3.5-9.12,9a42.41,42.41,0,0,0,3.06,8.11c.81,1.91,1.92,3.69,2.78,5.58a19.33,19.33,0,0,1,.82,2.87l-.63.45c-.79-.74-1.63-1.43-2.36-2.22-3.46-3.78-6.84-7.63-10.35-11.35-2.45-2.6-5.46-2.52-8.41-1-1.84.92-3.45,2.3-5.22,3.36S77.67,108,75.78,109Z"/><path class="cls-10" d="M147.94,116.13a13.61,13.61,0,0,0-1.25-1.73c-5.77-6-9-12.87-8.33-21.38a31.59,31.59,0,0,0-.43-7.45c-.24-1.44-1.2-2.75-1.83-4.13l-.81.24c.07,1,.12,1.94.21,2.91.54,5.54-3.22,13.42-11.45,12.1-1.63-.26-3.22-.78-4.83-1.18-2.48-.62-5-.89-7.21.64a24.55,24.55,0,0,0-2.9,2.7l.37.64c.91-.17,1.82-.35,2.73-.5,5.56-.93,10.22,3.5,9.11,9a42.62,42.62,0,0,1-3,8.11c-.81,1.9-1.92,3.69-2.78,5.57a19.81,19.81,0,0,0-.82,2.88l.63.44c.79-.74,1.63-1.42,2.36-2.22,3.46-3.77,6.84-7.62,10.35-11.35,2.45-2.6,5.46-2.52,8.41-1,1.84.93,3.44,2.3,5.22,3.37s3.78,2.09,5.67,3.13Z"/><path class="cls-9" d="M96.92,76.56a4.88,4.88,0,1,1-.22,9.76,4.88,4.88,0,0,1,.22-9.76Z"/><path class="cls-11" d="M58.7,92.53a4.89,4.89,0,1,1-.23,9.77,4.89,4.89,0,0,1,.23-9.77Z"/><path class="cls-10" d="M125.6,84a4.89,4.89,0,1,1-.22,9.77A4.89,4.89,0,0,1,125.6,84Z"/><path class="cls-11" d="M50.72,131.69l.92.41c1.19-1.81,2.42-3.58,3.53-5.44s1.84-3.74,3-5.43c1.9-2.7,4.51-4.18,7.9-3,4.85,1.63,9.64,3.44,14.47,5.14,1,.35,2.09.56,3.13.84l.34-.68A17.59,17.59,0,0,0,82,121.34c-1.65-1.27-3.46-2.32-5.08-3.62-2.25-1.81-4.7-3.51-6.51-5.71-3.58-4.36-1.55-10.46,3.79-12.26.88-.29,1.76-.56,2.64-.84l0-.75a24.86,24.86,0,0,0-3.83-1c-2.69-.29-4.77,1.11-6.66,2.83-1.23,1.11-2.39,2.32-3.71,3.32-6.64,5-13.66-.14-15.8-5.29-.37-.9-.79-1.78-1.18-2.66l-.83.17c.09,1.51-.13,3.12.33,4.5a31.61,31.61,0,0,0,3.13,6.78c4.58,7.2,5,14.8,2.71,22.78A14.67,14.67,0,0,0,50.72,131.69Z"/><path class="cls-12" d="M77.72,83.74C73.22,82.68,72.06,81.52,71,77a.28.28,0,0,0-.54,0c-1.06,4.5-2.22,5.66-6.72,6.72a.28.28,0,0,0,0,.54c4.5,1.06,5.66,2.22,6.72,6.72A.28.28,0,0,0,71,91c1.06-4.5,2.22-5.66,6.72-6.72A.28.28,0,0,0,77.72,83.74Z"/><path class="cls-12" d="M101.55,62c-4.5-1-5.66-2.21-6.71-6.71a.28.28,0,0,0-.55,0C93.24,59.8,92.08,61,87.58,62a.28.28,0,0,0,0,.55c4.5,1,5.66,2.21,6.71,6.71a.28.28,0,0,0,.55,0c1-4.5,2.21-5.66,6.71-6.71A.28.28,0,0,0,101.55,62Z"/><path class="cls-12" d="M125,79c-4.49-1-5.66-2.21-6.71-6.71a.28.28,0,0,0-.55,0c-1,4.5-2.21,5.66-6.71,6.71a.28.28,0,0,0,0,.55c4.5,1,5.66,2.21,6.71,6.71a.28.28,0,0,0,.55,0c1-4.5,2.22-5.66,6.71-6.71A.28.28,0,0,0,125,79Z"/><path class="cls-13" d="M114.47,52.75A51.35,51.35,0,0,1,141.68,80a49.17,49.17,0,0,1,2.45,7.29c2.33.84,4.82,1.66,7.5,2.46a58,58,0,0,0-34.51-43.24,57,57,0,0,0-12.4-3.67c.8,2.68,1.62,5.17,2.45,7.49A50.53,50.53,0,0,1,114.47,52.75Z"/><path class="cls-14" d="M47.45,80A51.22,51.22,0,0,1,82,50.29c.83-2.32,1.65-4.81,2.45-7.49A57.12,57.12,0,0,0,72,46.47,57.91,57.91,0,0,0,37.5,89.71c2.68-.8,5.17-1.62,7.5-2.46A50.36,50.36,0,0,1,47.45,80Z"/><path class="cls-15" d="M74.66,147a51.33,51.33,0,0,1-27.21-27.22A50,50,0,0,1,45,112.47c-2.33-.84-4.82-1.65-7.5-2.46a57.94,57.94,0,0,0,46.91,46.92c-.8-2.68-1.62-5.17-2.45-7.5A51.73,51.73,0,0,1,74.66,147Z"/><path class="cls-16" d="M141.68,119.76A51.33,51.33,0,0,1,114.47,147a51.73,51.73,0,0,1-7.3,2.45c-.83,2.33-1.65,4.82-2.45,7.5A57.94,57.94,0,0,0,151.63,110c-2.68.81-5.17,1.62-7.5,2.46A48.79,48.79,0,0,1,141.68,119.76Z"/></svg>